<mxfile host="app.diagrams.net" modified="2022-04-20T12:40:08.940Z" agent="5.0 (Windows NT 10.0; Win64; x64) AppleWebKit/537.36 (KHTML, like Gecko) Chrome/100.0.4896.127 Safari/537.36" etag="c_MAnrT3EmElogRHeaSo" version="17.4.5" type="github">
  <diagram id="_WHZ333O5z-xr7U11Ps9" name="Page-1">
    <mxGraphModel dx="1122" dy="349" grid="1" gridSize="10" guides="1" tooltips="1" connect="1" arrows="1" fold="1" page="1" pageScale="1" pageWidth="850" pageHeight="1100" math="1" shadow="0">
      <root>
        <mxCell id="0" />
        <mxCell id="1" parent="0" />
        <mxCell id="Z4PBqZm2vjWAzn_5r-rP-4" value="&lt;font style=&quot;font-size: 40px&quot; color=&quot;#069968&quot;&gt;$$ e : &quot; \exists ?&quot;$$&lt;/font&gt;" style="text;html=1;align=center;verticalAlign=middle;resizable=0;points=[];autosize=1;strokeColor=none;fillColor=none;fontSize=30;" vertex="1" parent="1">
          <mxGeometry x="-285" y="113" width="360" height="40" as="geometry" />
        </mxCell>
        <mxCell id="Z4PBqZm2vjWAzn_5r-rP-8" value="&lt;font style=&quot;font-size: 20px&quot;&gt;EXPECTATION&lt;/font&gt;" style="text;html=1;align=center;verticalAlign=middle;resizable=0;points=[];autosize=1;strokeColor=none;fillColor=none;fontSize=30;fontColor=#069968;" vertex="1" parent="1">
          <mxGeometry x="-230" y="180" width="150" height="40" as="geometry" />
        </mxCell>
        <mxCell id="Z4PBqZm2vjWAzn_5r-rP-9" value="EXISTENCE" style="text;html=1;align=center;verticalAlign=middle;resizable=0;points=[];autosize=1;strokeColor=none;fillColor=none;fontSize=20;fontColor=#069968;" vertex="1" parent="1">
          <mxGeometry x="-150" y="70" width="130" height="30" as="geometry" />
        </mxCell>
        <mxCell id="Z4PBqZm2vjWAzn_5r-rP-10" value="&lt;font style=&quot;font-size: 15px&quot;&gt;INAVISITION&lt;/font&gt;" style="text;html=1;align=center;verticalAlign=middle;resizable=0;points=[];autosize=1;strokeColor=none;fillColor=none;fontSize=20;fontColor=#069968;" vertex="1" parent="1">
          <mxGeometry x="-125" y="160" width="100" height="30" as="geometry" />
        </mxCell>
        <mxCell id="Z4PBqZm2vjWAzn_5r-rP-11" value="" style="rounded=0;whiteSpace=wrap;html=1;fontSize=40;fontColor=#069968;fillColor=none;strokeColor=#069968;dashed=1;" vertex="1" parent="1">
          <mxGeometry x="-122" y="167" width="95" height="20" as="geometry" />
        </mxCell>
        <mxCell id="Z4PBqZm2vjWAzn_5r-rP-13" value="" style="endArrow=classic;html=1;rounded=0;fontSize=40;fontColor=#069968;strokeColor=#069968;" edge="1" parent="1">
          <mxGeometry width="50" height="50" relative="1" as="geometry">
            <mxPoint x="-180" y="190" as="sourcePoint" />
            <mxPoint x="-180" y="150" as="targetPoint" />
          </mxGeometry>
        </mxCell>
        <mxCell id="Z4PBqZm2vjWAzn_5r-rP-14" value="" style="endArrow=classic;html=1;rounded=0;fontSize=40;fontColor=#069968;strokeColor=#069968;" edge="1" parent="1">
          <mxGeometry width="50" height="50" relative="1" as="geometry">
            <mxPoint x="-89.24" y="93" as="sourcePoint" />
            <mxPoint x="-89.24" y="113" as="targetPoint" />
          </mxGeometry>
        </mxCell>
        <mxCell id="Z4PBqZm2vjWAzn_5r-rP-15" value="" style="endArrow=classic;html=1;rounded=0;fontSize=40;fontColor=#069968;strokeColor=#069968;" edge="1" parent="1">
          <mxGeometry width="50" height="50" relative="1" as="geometry">
            <mxPoint x="-67" y="168" as="sourcePoint" />
            <mxPoint x="-67" y="148" as="targetPoint" />
          </mxGeometry>
        </mxCell>
      </root>
    </mxGraphModel>
  </diagram>
</mxfile>
